<svg class="icon" style="width: 1em;height: 1em;vertical-align: middle;fill: currentColor;overflow: hidden;" viewBox="0 0 1024 1024" version="1.1" xmlns="http://www.w3.org/2000/svg"><path d="M85.333333 85.333333h853.333334v853.333334H85.333333V85.333333z m85.333334 85.333334v682.666666h682.666666V170.666667H170.666667z m533.333333 128a21.333333 21.333333 0 0 0-21.333333 21.333333c0 9.472 6.698667 23.253333 20.821333 38.698667l0.512 0.554666 0.512-0.554666c14.08-15.445333 20.821333-29.226667 20.821333-38.698667a21.333333 21.333333 0 0 0-21.333333-21.333333z m0 169.130666c-12.544-8.618667-25.386667-16.896-37.12-26.538666a259.114667 259.114667 0 0 1-26.368-24.96C622.592 396.714667 597.333333 362.538667 597.333333 320a106.666667 106.666667 0 0 1 213.333334 0c0 42.538667-25.301333 76.714667-43.178667 96.298667a259.925333 259.925333 0 0 1-26.368 24.96c-11.776 9.685333-24.576 17.92-37.12 26.538666zM362.666667 426.666667a21.333333 21.333333 0 0 0-21.333334 21.333333c0 9.472 6.698667 23.253333 20.821334 38.698667l0.512 0.554666 0.512-0.554666c14.08-15.445333 20.821333-29.226667 20.821333-38.698667a21.333333 21.333333 0 0 0-21.333333-21.333333z m0 169.130666c-9.429333-6.485333-19.072-12.757333-28.245334-19.584a259.413333 259.413333 0 0 1-35.242666-31.914666C281.258667 524.714667 256 490.538667 256 448a106.666667 106.666667 0 0 1 213.333333 0c0 42.538667-25.301333 76.714667-43.178666 96.298667a259.925333 259.925333 0 0 1-35.242667 31.914666c-9.173333 6.826667-18.816 13.098667-28.245333 19.584z m481.621333-16.170666l-250.581333 93.952-29.952-79.872 250.538666-93.952 29.994667 79.872z m-341.333333 128l-250.581334 93.994666-29.952-79.914666 250.538667-93.952 29.952 79.872z" /></svg>