<svg class="icon" style="width: 1em;height: 1em;vertical-align: middle;fill: currentColor;overflow: hidden;" viewBox="0 0 1024 1024" version="1.1" xmlns="http://www.w3.org/2000/svg"><path d="M783.530667 240.469333A384 384 0 1 0 240.469333 783.530667 384 384 0 0 0 783.530667 240.469333zM180.138667 180.138667c183.296-183.296 480.426667-183.296 663.722666 0 183.296 183.296 183.296 480.426667 0 663.722666-183.296 183.296-480.426667 183.296-663.722666 0-183.296-183.296-183.296-480.426667 0-663.722666z m564.053333 99.712l-211.84 550.826666-89.6-249.344-249.386667-89.6 550.826667-211.882666z m-306.090667 209.152l71.338667 25.6 25.6 71.338666 60.586667-157.525333-157.525334 60.586667z" /></svg>