<svg class="icon" style="width: 1em;height: 1em;vertical-align: middle;fill: currentColor;overflow: hidden;" viewBox="0 0 1024 1024" version="1.1" xmlns="http://www.w3.org/2000/svg"><path d="M318.805333 84.181333A467.797333 467.797333 0 0 1 512 42.666667c259.2 0 469.333333 210.133333 469.333333 469.333333 0 68.778667-14.848 134.229333-41.514666 193.194667l-17.578667 38.912-77.738667-35.2 17.578667-38.826667A382.506667 382.506667 0 0 0 896 512a384 384 0 0 0-384-384 382.464 382.464 0 0 0-158.037333 33.92l-38.869334 17.578667-35.157333-77.738667 38.826667-17.578667zM128 67.669333l324.437333 324.394667h0.042667l179.541333 179.498667v0.085333L956.288 896 896 956.330667l-83.669333-83.626667A467.584 467.584 0 0 1 512 981.333333C252.8 981.333333 42.666667 771.2 42.666667 512c0-114.218667 40.832-218.965333 108.672-300.330667L67.669333 128 128 67.669333z m83.968 204.629334A382.208 382.208 0 0 0 128 512a384 384 0 0 0 384 384 382.208 382.208 0 0 0 239.701333-83.968l-153.216-153.216-66.133333 171.861333-89.6-249.344-249.386667-89.6 171.904-66.133333-153.301333-153.301333z m532.266667 7.552l-82.645334 214.826666-79.658666-30.592 13.738666-35.669333-35.669333 13.696-30.634667-79.616 214.869334-82.645333z" /></svg>