<svg class="icon" style="width: 1em;height: 1em;vertical-align: middle;fill: currentColor;overflow: hidden;" viewBox="0 0 1024 1024" version="1.1" xmlns="http://www.w3.org/2000/svg"><path d="M512 128a298.666667 298.666667 0 0 0-298.666667 298.666667c0 122.112 76.032 239.914667 159.488 331.178666A1116.074667 1116.074667 0 0 0 512 885.674667a1115.306667 1115.306667 0 0 0 139.178667-127.744C734.634667 666.581333 810.666667 548.821333 810.666667 426.666667a298.666667 298.666667 0 0 0-298.666667-298.666667z m0 862.464l-24.192-16.64-0.128-0.085333-0.256-0.213334-0.853333-0.597333-3.2-2.261333a1081.173333 1081.173333 0 0 1-51.797334-40.106667 1201.365333 1201.365333 0 0 1-121.728-115.114667C222.634667 720.042667 128 581.845333 128 426.666667a384 384 0 0 1 768 0c0 155.178667-94.634667 293.418667-181.845333 388.778666a1200.853333 1200.853333 0 0 1-161.962667 146.773334 716.544 716.544 0 0 1-14.72 10.709333l-0.896 0.597333-0.256 0.213334-0.085333 0.042666-24.234667 16.64zM341.333333 405.333333h341.333334v85.333334H341.333333v-85.333334z" /></svg>