<svg class="icon" style="width: 1em;height: 1em;vertical-align: middle;fill: currentColor;overflow: hidden;" viewBox="0 0 1024 1024" version="1.1" xmlns="http://www.w3.org/2000/svg"><path d="M384 85.333333H42.666667v810.666667h42.666666c125.610667 0 219.306667 10.453333 281.002667 20.736 30.848 5.12 53.76 10.24 68.650667 13.994667a449.28 449.28 0 0 1 20.138666 5.546666l0.725334 0.213334h0.085333l6.485333 2.176h99.157334l6.485333-2.133334 0.085333-0.042666 0.725334-0.256 3.754666-1.109334c3.456-1.024 8.96-2.56 16.384-4.394666 14.933333-3.712 37.802667-8.832 68.693334-13.994667C719.36 906.496 812.970667 896 938.666667 896h42.666666V85.333333h-341.333333a170.24 170.24 0 0 0-128 57.770667A170.24 170.24 0 0 0 384 85.333333zM128 811.093333V170.666667h256a85.333333 85.333333 0 0 1 85.333333 85.333333v595.498667a609.28 609.28 0 0 0-13.653333-3.541334c-17.066667-4.266667-42.197333-9.813333-75.349333-15.36-58.837333-9.813333-142.933333-19.498667-252.330667-21.546666z m554.666667-363.093333v42.666667h-85.333334v-42.666667a128 128 0 1 1 256 0c0 28.842667-7.338667 53.162667-20.224 72.96a126.165333 126.165333 0 0 1-43.904 40.533333 176.469333 176.469333 0 0 1-21.077333 10.154667v15.018667h-85.333333v-42.666667c0-18.090667 10.453333-29.312 15.402666-33.706667 5.12-4.48 10.24-7.04 12.629334-8.192 4.565333-2.133333 9.941333-4.010667 13.184-5.12l0.768-0.298666c8.106667-2.816 15.36-5.418667 22.186666-9.301334a41.088 41.088 0 0 0 14.634667-13.013333c3.072-4.693333 6.4-12.544 6.4-26.368a42.666667 42.666667 0 1 0-85.333333 0z m85.504 170.666667v85.504H682.666667V618.666667h85.504z" /></svg>